<?xml version="1.0" encoding="UTF-8" standalone="no"?>
<!DOCTYPE svg PUBLIC "-//W3C//DTD SVG 1.1//EN"
 "http://www.w3.org/Graphics/SVG/1.1/DTD/svg11.dtd">
<!-- Generated by graphviz version 2.44.1 (20200629.0846)
 -->
<!-- Title: g Pages: 1 -->
<svg width="432pt" height="394pt"
 viewBox="0.00 0.00 432.00 394.38" xmlns="http://www.w3.org/2000/svg" xmlns:xlink="http://www.w3.org/1999/xlink">
<g id="graph0" class="graph" transform="scale(0.59 0.59) rotate(0) translate(4 664.29)">
<title>g</title>
<polygon fill="white" stroke="transparent" points="-4,4 -4,-664.29 728.04,-664.29 728.04,4 -4,4"/>

<!-- 15A -->
<g id="node1" class="node">
<title>15A</title>
<ellipse fill="lightskyblue" stroke="lightskyblue" cx="231.14" cy="-642.29" rx="27" ry="18"/>
<text text-anchor="middle" x="231.14" y="-638.59" font-family="Times,serif" font-size="14.00">15A</text>
</g>
<!-- 51 -->
<g id="node2" class="node">
<title>51</title>
<ellipse fill="maroon" stroke="maroon" cx="141.59" cy="-539.66" rx="27" ry="18"/>
<text text-anchor="middle" x="141.59" y="-535.96" font-family="Times,serif" font-size="14.00">51</text>
</g>
<!-- 15A&#45;&gt;51 -->
<g id="edge43" class="edge">
<title>15A&#45;&gt;51</title>
<path fill="none" stroke="black" d="M217.54,-626.7C202.75,-609.75 178.94,-582.47 161.92,-562.96"/>
<polygon fill="black" stroke="black" points="164.53,-560.63 155.32,-555.39 159.26,-565.23 164.53,-560.63"/>
</g>
<!-- 17 -->
<g id="node3" class="node">
<title>17</title>
<ellipse fill="indianred" stroke="indianred" cx="216.14" cy="-572.3" rx="27" ry="18"/>
<text text-anchor="middle" x="216.14" y="-568.6" font-family="Times,serif" font-size="14.00">17</text>
</g>
<!-- 15A&#45;&gt;17 -->
<g id="edge45" class="edge">
<title>15A&#45;&gt;17</title>
<path fill="none" stroke="black" d="M227.28,-624.27C225.71,-616.98 223.87,-608.39 222.14,-600.32"/>
<polygon fill="black" stroke="black" points="225.56,-599.55 220.04,-590.51 218.72,-601.02 225.56,-599.55"/>
</g>
<!-- 66 -->
<g id="node45" class="node">
<title>66</title>
<ellipse fill="lightcoral" stroke="lightcoral" cx="109.54" cy="-591.8" rx="27" ry="18"/>
<text text-anchor="middle" x="109.54" y="-588.1" font-family="Times,serif" font-size="14.00">66</text>
</g>
<!-- 51&#45;&gt;66 -->
<g id="edge39" class="edge">
<title>51&#45;&gt;66</title>
<path fill="none" stroke="black" d="M131.27,-556.44C129.33,-559.61 127.26,-562.98 125.19,-566.34"/>
<polygon fill="black" stroke="black" points="122.09,-564.69 119.84,-575.05 128.06,-568.36 122.09,-564.69"/>
</g>
<!-- 52 -->
<g id="node46" class="node">
<title>52</title>
<ellipse fill="lightcoral" stroke="lightcoral" cx="66.43" cy="-547.66" rx="27" ry="18"/>
<text text-anchor="middle" x="66.43" y="-543.96" font-family="Times,serif" font-size="14.00">52</text>
</g>
<!-- 51&#45;&gt;52 -->
<g id="edge44" class="edge">
<title>51&#45;&gt;52</title>
<path fill="none" stroke="black" d="M114.88,-542.5C111.16,-542.9 107.28,-543.31 103.41,-543.72"/>
<polygon fill="black" stroke="black" points="102.88,-540.26 93.31,-544.8 103.62,-547.22 102.88,-540.26"/>
</g>
<!-- 3B -->
<g id="node4" class="node">
<title>3B</title>
<ellipse fill="lightcoral" stroke="lightcoral" cx="46.44" cy="-18" rx="27" ry="18"/>
<text text-anchor="middle" x="46.44" y="-14.3" font-family="Times,serif" font-size="14.00">3B</text>
</g>
<!-- 63A -->
<g id="node35" class="node">
<title>63A</title>
<ellipse fill="indianred" stroke="indianred" cx="27" cy="-122.76" rx="27" ry="18"/>
<text text-anchor="middle" x="27" y="-119.06" font-family="Times,serif" font-size="14.00">63A</text>
</g>
<!-- 3B&#45;&gt;63A -->
<g id="edge78" class="edge">
<title>3B&#45;&gt;63A</title>
<path fill="none" stroke="black" d="M43.05,-36.25C40.06,-52.4 35.64,-76.21 32.19,-94.77"/>
<polygon fill="black" stroke="black" points="28.73,-94.25 30.35,-104.72 35.61,-95.53 28.73,-94.25"/>
</g>
<!-- 21B -->
<g id="node5" class="node">
<title>21B</title>
<ellipse fill="lightcoral" stroke="lightcoral" cx="204.2" cy="-496.03" rx="27" ry="18"/>
<text text-anchor="middle" x="204.2" y="-492.33" font-family="Times,serif" font-size="14.00">21B</text>
</g>
<!-- 21B&#45;&gt;51 -->
<g id="edge51" class="edge">
<title>21B&#45;&gt;51</title>
<path fill="none" stroke="black" d="M185.41,-509.12C180.21,-512.74 174.46,-516.75 168.88,-520.64"/>
<polygon fill="black" stroke="black" points="166.57,-517.99 160.36,-526.58 170.57,-523.73 166.57,-517.99"/>
</g>
<!-- Fig. 6A -->
<g id="node6" class="node">
<title>Fig. 6A</title>
<polygon fill="grey" stroke="grey" points="350.55,-195.84 273.55,-195.84 273.55,-159.84 350.55,-159.84 350.55,-195.84"/>
<text text-anchor="middle" x="312.05" y="-174.14" font-family="Times,serif" font-size="14.00">Fig. 6A</text>
</g>
<!-- 6A -->
<g id="node7" class="node">
<title>6A</title>
<ellipse fill="blue" stroke="blue" cx="313.97" cy="-327.46" rx="27" ry="18"/>
<text text-anchor="middle" x="313.97" y="-323.76" font-family="Times,serif" font-size="14.00">6A</text>
</g>
<!-- Fig. 6A&#45;&gt;6A -->
<g id="edge75" class="edge">
<title>Fig. 6A&#45;&gt;6A</title>
<path fill="none" stroke="black" d="M312.28,-195.89C312.61,-221.5 313.22,-268.65 313.6,-299"/>
<polygon fill="black" stroke="black" points="310.11,-299.39 313.74,-309.35 317.11,-299.3 310.11,-299.39"/>
</g>
<!-- 6B -->
<g id="node8" class="node">
<title>6B</title>
<ellipse fill="dodgerblue" stroke="dodgerblue" cx="346.45" cy="-273.02" rx="27" ry="18"/>
<text text-anchor="middle" x="346.45" y="-269.32" font-family="Times,serif" font-size="14.00">6B</text>
</g>
<!-- Fig. 6A&#45;&gt;6B -->
<g id="edge74" class="edge">
<title>Fig. 6A&#45;&gt;6B</title>
<path fill="none" stroke="black" d="M318.68,-196.19C323.74,-210.19 330.8,-229.71 336.53,-245.57"/>
<polygon fill="black" stroke="black" points="333.38,-247.15 340.07,-255.37 339.96,-244.77 333.38,-247.15"/>
</g>
<!-- 3A -->
<g id="node9" class="node">
<title>3A</title>
<ellipse fill="dodgerblue" stroke="dodgerblue" cx="546.63" cy="-27.98" rx="27" ry="18"/>
<text text-anchor="middle" x="546.63" y="-24.28" font-family="Times,serif" font-size="14.00">3A</text>
</g>
<!-- Fig. 6A&#45;&gt;3A -->
<g id="edge76" class="edge">
<title>Fig. 6A&#45;&gt;3A</title>
<path fill="none" stroke="black" d="M340.35,-159.76C385.49,-130.92 473.31,-74.82 518.41,-46.01"/>
<polygon fill="black" stroke="black" points="520.55,-48.79 527.09,-40.46 516.78,-42.9 520.55,-48.79"/>
</g>
<!-- 29 -->
<g id="node10" class="node">
<title>29</title>
<ellipse fill="lightskyblue" stroke="lightskyblue" cx="371.3" cy="-107.71" rx="27" ry="18"/>
<text text-anchor="middle" x="371.3" y="-104.01" font-family="Times,serif" font-size="14.00">29</text>
</g>
<!-- Fig. 6A&#45;&gt;29 -->
<g id="edge68" class="edge">
<title>Fig. 6A&#45;&gt;29</title>
<path fill="none" stroke="black" d="M327.31,-159.78C334.63,-151.12 343.49,-140.63 351.34,-131.34"/>
<polygon fill="black" stroke="black" points="354.13,-133.46 357.91,-123.56 348.78,-128.94 354.13,-133.46"/>
</g>
<!-- 28 -->
<g id="node11" class="node">
<title>28</title>
<ellipse fill="lightskyblue" stroke="lightskyblue" cx="306.72" cy="-103.09" rx="27" ry="18"/>
<text text-anchor="middle" x="306.72" y="-99.39" font-family="Times,serif" font-size="14.00">28</text>
</g>
<!-- Fig. 6A&#45;&gt;28 -->
<g id="edge70" class="edge">
<title>Fig. 6A&#45;&gt;28</title>
<path fill="none" stroke="black" d="M310.76,-159.75C310.16,-151.27 309.42,-140.97 308.75,-131.49"/>
<polygon fill="black" stroke="black" points="312.22,-131 308.02,-121.28 305.24,-131.5 312.22,-131"/>
</g>
<!-- 27 -->
<g id="node12" class="node">
<title>27</title>
<ellipse fill="lightskyblue" stroke="lightskyblue" cx="386.3" cy="-212.95" rx="27" ry="18"/>
<text text-anchor="middle" x="386.3" y="-209.25" font-family="Times,serif" font-size="14.00">27</text>
</g>
<!-- Fig. 6A&#45;&gt;27 -->
<g id="edge73" class="edge">
<title>Fig. 6A&#45;&gt;27</title>
<path fill="none" stroke="black" d="M350.48,-196.01C351.94,-196.7 353.4,-197.39 354.84,-198.07"/>
<polygon fill="black" stroke="black" points="353.58,-201.35 364.11,-202.46 356.57,-195.02 353.58,-201.35"/>
</g>
<!-- 3A&#45;&gt;3B -->
<g id="edge77" class="edge">
<title>3A&#45;&gt;3B</title>
<path fill="none" stroke="black" d="M519.38,-27.44C435.38,-25.76 180.27,-20.67 83.87,-18.75"/>
<polygon fill="black" stroke="black" points="83.78,-15.24 73.71,-18.54 83.64,-22.24 83.78,-15.24"/>
</g>
<!-- 56 -->
<g id="node13" class="node">
<title>56</title>
<ellipse fill="red" stroke="red" cx="436.67" cy="-62.56" rx="27" ry="18"/>
<text text-anchor="middle" x="436.67" y="-58.86" font-family="Times,serif" font-size="14.00">56</text>
</g>
<!-- 29&#45;&gt;56 -->
<g id="edge69" class="edge">
<title>29&#45;&gt;56</title>
<path fill="none" stroke="black" d="M390.21,-94.65C396.12,-90.57 402.76,-85.98 409.14,-81.57"/>
<polygon fill="black" stroke="black" points="411.34,-84.31 417.58,-75.75 407.36,-78.55 411.34,-84.31"/>
</g>
<!-- 28&#45;&gt;56 -->
<g id="edge71" class="edge">
<title>28&#45;&gt;56</title>
<path fill="none" stroke="black" d="M331.47,-95.37C351.52,-89.12 380,-80.23 402.27,-73.29"/>
<polygon fill="black" stroke="black" points="403.51,-76.57 412.01,-70.25 401.43,-69.89 403.51,-76.57"/>
</g>
<!-- 57 -->
<g id="node14" class="node">
<title>57</title>
<ellipse fill="lightcoral" stroke="lightcoral" cx="256.54" cy="-143.14" rx="27" ry="18"/>
<text text-anchor="middle" x="256.54" y="-139.44" font-family="Times,serif" font-size="14.00">57</text>
</g>
<!-- 28&#45;&gt;57 -->
<g id="edge72" class="edge">
<title>28&#45;&gt;57</title>
<path fill="none" stroke="black" d="M289.17,-117.1C286.89,-118.92 284.52,-120.81 282.14,-122.7"/>
<polygon fill="black" stroke="black" points="279.8,-120.1 274.17,-129.07 284.16,-125.57 279.8,-120.1"/>
</g>
<!-- Fig. 2B -->
<g id="node15" class="node">
<title>Fig. 2B</title>
<polygon fill="grey" stroke="grey" points="448.54,-655.87 373.54,-655.87 373.54,-619.87 448.54,-619.87 448.54,-655.87"/>
<text text-anchor="middle" x="411.04" y="-634.17" font-family="Times,serif" font-size="14.00">Fig. 2B</text>
</g>
<!-- Fig. 2B&#45;&gt;6A -->
<g id="edge33" class="edge">
<title>Fig. 2B&#45;&gt;6A</title>
<path fill="none" stroke="black" d="M405.4,-619.84C389.15,-567.85 342.1,-417.43 322.6,-355.06"/>
<polygon fill="black" stroke="black" points="325.83,-353.65 319.5,-345.15 319.15,-355.74 325.83,-353.65"/>
</g>
<!-- 13 -->
<g id="node16" class="node">
<title>13</title>
<ellipse fill="lightskyblue" stroke="lightskyblue" cx="697.04" cy="-632.87" rx="27" ry="18"/>
<text text-anchor="middle" x="697.04" y="-629.17" font-family="Times,serif" font-size="14.00">13</text>
</g>
<!-- Fig. 2B&#45;&gt;13 -->
<g id="edge32" class="edge">
<title>Fig. 2B&#45;&gt;13</title>
<path fill="none" stroke="black" d="M448.72,-637.21C503.61,-636.25 604.96,-634.48 659.67,-633.52"/>
<polygon fill="black" stroke="black" points="660.03,-637.02 669.96,-633.34 659.9,-630.02 660.03,-637.02"/>
</g>
<!-- 14 -->
<g id="node17" class="node">
<title>14</title>
<ellipse fill="lightskyblue" stroke="lightskyblue" cx="646.3" cy="-608.17" rx="27" ry="18"/>
<text text-anchor="middle" x="646.3" y="-604.47" font-family="Times,serif" font-size="14.00">14</text>
</g>
<!-- Fig. 2B&#45;&gt;14 -->
<g id="edge31" class="edge">
<title>Fig. 2B&#45;&gt;14</title>
<path fill="none" stroke="black" d="M448.58,-633.13C492.77,-627.55 565.7,-618.35 609.55,-612.81"/>
<polygon fill="black" stroke="black" points="610.02,-616.28 619.51,-611.55 609.15,-609.33 610.02,-616.28"/>
</g>
<!-- 9 -->
<g id="node18" class="node">
<title>9</title>
<ellipse fill="lightskyblue" stroke="lightskyblue" cx="326.98" cy="-602.87" rx="27" ry="18"/>
<text text-anchor="middle" x="326.98" y="-599.17" font-family="Times,serif" font-size="14.00">9</text>
</g>
<!-- Fig. 2B&#45;&gt;9 -->
<g id="edge28" class="edge">
<title>Fig. 2B&#45;&gt;9</title>
<path fill="none" stroke="black" d="M373.44,-622.21C368.89,-620.32 364.27,-618.4 359.8,-616.53"/>
<polygon fill="black" stroke="black" points="360.9,-613.2 350.32,-612.59 358.21,-619.66 360.9,-613.2"/>
</g>
<!-- 10A -->
<g id="node19" class="node">
<title>10A</title>
<ellipse fill="lightskyblue" stroke="lightskyblue" cx="507.04" cy="-592.87" rx="27" ry="18"/>
<text text-anchor="middle" x="507.04" y="-589.17" font-family="Times,serif" font-size="14.00">10A</text>
</g>
<!-- Fig. 2B&#45;&gt;10A -->
<g id="edge30" class="edge">
<title>Fig. 2B&#45;&gt;10A</title>
<path fill="none" stroke="black" d="M448.71,-620.21C457.56,-616.06 466.91,-611.68 475.46,-607.67"/>
<polygon fill="black" stroke="black" points="477.15,-610.75 484.72,-603.33 474.18,-604.41 477.15,-610.75"/>
</g>
<!-- 10B -->
<g id="node20" class="node">
<title>10B</title>
<ellipse fill="lightskyblue" stroke="lightskyblue" cx="490.79" cy="-408.08" rx="27" ry="18"/>
<text text-anchor="middle" x="490.79" y="-404.38" font-family="Times,serif" font-size="14.00">10B</text>
</g>
<!-- Fig. 2B&#45;&gt;10B -->
<g id="edge29" class="edge">
<title>Fig. 2B&#45;&gt;10B</title>
<path fill="none" stroke="black" d="M417.3,-619.84C431.22,-579.72 464.83,-482.88 481.33,-435.34"/>
<polygon fill="black" stroke="black" points="484.7,-436.31 484.67,-425.71 478.09,-434.01 484.7,-436.31"/>
</g>
<!-- 15B -->
<g id="node21" class="node">
<title>15B</title>
<ellipse fill="dodgerblue" stroke="dodgerblue" cx="396.79" cy="-399.64" rx="27" ry="18"/>
<text text-anchor="middle" x="396.79" y="-395.94" font-family="Times,serif" font-size="14.00">15B</text>
</g>
<!-- Fig. 2B&#45;&gt;15B -->
<g id="edge34" class="edge">
<title>Fig. 2B&#45;&gt;15B</title>
<path fill="none" stroke="black" d="M409.95,-619.57C407.47,-578.16 401.42,-477.02 398.47,-427.66"/>
<polygon fill="black" stroke="black" points="401.96,-427.45 397.87,-417.67 394.97,-427.87 401.96,-427.45"/>
</g>
<!-- 11A -->
<g id="node39" class="node">
<title>11A</title>
<ellipse fill="lightcoral" stroke="lightcoral" cx="577.04" cy="-592.87" rx="27" ry="18"/>
<text text-anchor="middle" x="577.04" y="-589.17" font-family="Times,serif" font-size="14.00">11A</text>
</g>
<!-- 10A&#45;&gt;11A -->
<g id="edge14" class="edge">
<title>10A&#45;&gt;11A</title>
<path fill="none" stroke="black" d="M534.3,-592.87C536.05,-592.87 537.81,-592.87 539.59,-592.87"/>
<polygon fill="black" stroke="black" points="539.74,-596.37 549.73,-592.87 539.73,-589.37 539.74,-596.37"/>
</g>
<!-- 12 -->
<g id="node40" class="node">
<title>12</title>
<ellipse fill="lightcoral" stroke="lightcoral" cx="551.79" cy="-438.08" rx="27" ry="18"/>
<text text-anchor="middle" x="551.79" y="-434.38" font-family="Times,serif" font-size="14.00">12</text>
</g>
<!-- 10A&#45;&gt;12 -->
<g id="edge17" class="edge">
<title>10A&#45;&gt;12</title>
<path fill="none" stroke="black" d="M512.17,-575.11C519.89,-548.43 534.54,-497.75 543.7,-466.06"/>
<polygon fill="black" stroke="black" points="547.16,-466.68 546.58,-456.11 540.44,-464.74 547.16,-466.68"/>
</g>
<!-- 10B&#45;&gt;12 -->
<g id="edge20" class="edge">
<title>10B&#45;&gt;12</title>
<path fill="none" stroke="black" d="M512.81,-418.91C515.44,-420.2 518.15,-421.54 520.87,-422.87"/>
<polygon fill="black" stroke="black" points="519.49,-426.09 530,-427.37 522.58,-419.81 519.49,-426.09"/>
</g>
<!-- 60 -->
<g id="node43" class="node">
<title>60</title>
<ellipse fill="lightcoral" stroke="lightcoral" cx="496.39" cy="-513.17" rx="27" ry="18"/>
<text text-anchor="middle" x="496.39" y="-509.47" font-family="Times,serif" font-size="14.00">60</text>
</g>
<!-- 10B&#45;&gt;60 -->
<g id="edge21" class="edge">
<title>10B&#45;&gt;60</title>
<path fill="none" stroke="black" d="M491.77,-426.39C492.62,-442.51 493.89,-466.25 494.88,-484.83"/>
<polygon fill="black" stroke="black" points="491.4,-485.27 495.43,-495.07 498.39,-484.9 491.4,-485.27"/>
</g>
<!-- 47 -->
<g id="node44" class="node">
<title>47</title>
<ellipse fill="lightcoral" stroke="lightcoral" cx="437.78" cy="-457.48" rx="27" ry="18"/>
<text text-anchor="middle" x="437.78" y="-453.78" font-family="Times,serif" font-size="14.00">47</text>
</g>
<!-- 15B&#45;&gt;47 -->
<g id="edge35" class="edge">
<title>15B&#45;&gt;47</title>
<path fill="none" stroke="black" d="M408.43,-416.06C412.03,-421.14 416.09,-426.87 420.01,-432.4"/>
<polygon fill="black" stroke="black" points="417.33,-434.68 425.97,-440.82 423.05,-430.64 417.33,-434.68"/>
</g>
<!-- Fig. 2A -->
<g id="node22" class="node">
<title>Fig. 2A</title>
<polygon fill="grey" stroke="grey" points="674.8,-376.17 597.8,-376.17 597.8,-340.17 674.8,-340.17 674.8,-376.17"/>
<text text-anchor="middle" x="636.3" y="-354.47" font-family="Times,serif" font-size="14.00">Fig. 2A</text>
</g>
<!-- Fig. 2A&#45;&gt;6A -->
<g id="edge26" class="edge">
<title>Fig. 2A&#45;&gt;6A</title>
<path fill="none" stroke="black" d="M597.74,-354.5C535.19,-348.54 412.41,-336.84 350.91,-330.98"/>
<polygon fill="black" stroke="black" points="351.16,-327.49 340.88,-330.02 350.5,-334.46 351.16,-327.49"/>
</g>
<!-- Fig. 2A&#45;&gt;6B -->
<g id="edge25" class="edge">
<title>Fig. 2A&#45;&gt;6B</title>
<path fill="none" stroke="black" d="M597.51,-346.77C540.7,-330.09 435.73,-299.25 381.27,-283.25"/>
<polygon fill="black" stroke="black" points="381.97,-279.81 371.39,-280.35 380,-286.52 381.97,-279.81"/>
</g>
<!-- Fig. 2A&#45;&gt;3A -->
<g id="edge27" class="edge">
<title>Fig. 2A&#45;&gt;3A</title>
<path fill="none" stroke="black" d="M631.35,-339.95C616.47,-285.13 572.03,-121.52 554.18,-55.78"/>
<polygon fill="black" stroke="black" points="557.45,-54.48 551.45,-45.74 550.7,-56.31 557.45,-54.48"/>
</g>
<!-- Fig. 2A&#45;&gt;13 -->
<g id="edge23" class="edge">
<title>Fig. 2A&#45;&gt;13</title>
<path fill="none" stroke="black" d="M640.29,-376.19C650.62,-422.95 678.37,-548.43 690.83,-604.78"/>
<polygon fill="black" stroke="black" points="687.46,-605.77 693.04,-614.78 694.3,-604.26 687.46,-605.77"/>
</g>
<!-- Fig. 2A&#45;&gt;14 -->
<g id="edge22" class="edge">
<title>Fig. 2A&#45;&gt;14</title>
<path fill="none" stroke="black" d="M637.04,-376.55C638.77,-419.82 643.11,-528.32 645.17,-579.98"/>
<polygon fill="black" stroke="black" points="641.68,-580.25 645.58,-590.1 648.67,-579.97 641.68,-580.25"/>
</g>
<!-- Fig. 2A&#45;&gt;10A -->
<g id="edge13" class="edge">
<title>Fig. 2A&#45;&gt;10A</title>
<path fill="none" stroke="black" d="M626.37,-376.2C603.65,-417.46 547.79,-518.88 521.35,-566.88"/>
<polygon fill="black" stroke="black" points="518.23,-565.29 516.48,-575.74 524.37,-568.67 518.23,-565.29"/>
</g>
<!-- Fig. 2A&#45;&gt;10B -->
<g id="edge19" class="edge">
<title>Fig. 2A&#45;&gt;10B</title>
<path fill="none" stroke="black" d="M597.69,-371.41C574.91,-379.23 546.35,-389.02 524.49,-396.52"/>
<polygon fill="black" stroke="black" points="523.28,-393.24 514.96,-399.79 525.55,-399.86 523.28,-393.24"/>
</g>
<!-- Fig. 2A&#45;&gt;15B -->
<g id="edge24" class="edge">
<title>Fig. 2A&#45;&gt;15B</title>
<path fill="none" stroke="black" d="M597.55,-364.88C552.2,-372.73 477.67,-385.64 433.31,-393.32"/>
<polygon fill="black" stroke="black" points="432.5,-389.9 423.25,-395.06 433.7,-396.8 432.5,-389.9"/>
</g>
<!-- 8 -->
<g id="node23" class="node">
<title>8</title>
<ellipse fill="lightskyblue" stroke="lightskyblue" cx="426.5" cy="-363.04" rx="27" ry="18"/>
<text text-anchor="middle" x="426.5" y="-359.34" font-family="Times,serif" font-size="14.00">8</text>
</g>
<!-- Fig. 2A&#45;&gt;8 -->
<g id="edge12" class="edge">
<title>Fig. 2A&#45;&gt;8</title>
<path fill="none" stroke="black" d="M597.33,-359.07C559.09,-359.96 501.2,-361.31 463.62,-362.18"/>
<polygon fill="black" stroke="black" points="463.51,-358.68 453.59,-362.41 463.67,-365.68 463.51,-358.68"/>
</g>
<!-- 18 -->
<g id="node24" class="node">
<title>18</title>
<ellipse fill="lightskyblue" stroke="lightskyblue" cx="220.42" cy="-407.97" rx="27" ry="18"/>
<text text-anchor="middle" x="220.42" y="-404.27" font-family="Times,serif" font-size="14.00">18</text>
</g>
<!-- 18&#45;&gt;51 -->
<g id="edge52" class="edge">
<title>18&#45;&gt;51</title>
<path fill="none" stroke="black" d="M210.28,-424.92C196.74,-447.54 172.64,-487.79 156.89,-514.1"/>
<polygon fill="black" stroke="black" points="153.83,-512.4 151.7,-522.78 159.83,-516 153.83,-512.4"/>
</g>
<!-- 18&#45;&gt;21B -->
<g id="edge50" class="edge">
<title>18&#45;&gt;21B</title>
<path fill="none" stroke="black" d="M217.06,-426.22C214.83,-438.34 211.85,-454.49 209.33,-468.2"/>
<polygon fill="black" stroke="black" points="205.87,-467.64 207.5,-478.11 212.75,-468.91 205.87,-467.64"/>
</g>
<!-- Fig. 3 -->
<g id="node25" class="node">
<title>Fig. 3</title>
<polygon fill="grey" stroke="grey" points="343.14,-501.01 279.14,-501.01 279.14,-465.01 343.14,-465.01 343.14,-501.01"/>
<text text-anchor="middle" x="311.14" y="-479.31" font-family="Times,serif" font-size="14.00">Fig. 3</text>
</g>
<!-- Fig. 3&#45;&gt;15A -->
<g id="edge42" class="edge">
<title>Fig. 3&#45;&gt;15A</title>
<path fill="none" stroke="black" d="M301.96,-501.28C287.83,-529.42 260.67,-583.5 244.4,-615.89"/>
<polygon fill="black" stroke="black" points="241.09,-614.69 239.73,-625.2 247.34,-617.83 241.09,-614.69"/>
</g>
<!-- Fig. 3&#45;&gt;15B -->
<g id="edge41" class="edge">
<title>Fig. 3&#45;&gt;15B</title>
<path fill="none" stroke="black" d="M329.72,-464.92C342.76,-452.23 360.26,-435.2 374.12,-421.71"/>
<polygon fill="black" stroke="black" points="376.66,-424.11 381.39,-414.63 371.78,-419.1 376.66,-424.11"/>
</g>
<!-- 1A,B -->
<g id="node26" class="node">
<title>1A,B</title>
<ellipse fill="lightskyblue" stroke="lightskyblue" cx="331.45" cy="-554.85" rx="30" ry="18"/>
<text text-anchor="middle" x="331.45" y="-551.15" font-family="Times,serif" font-size="14.00">1A,B</text>
</g>
<!-- Fig. 3&#45;&gt;1A,B -->
<g id="edge36" class="edge">
<title>Fig. 3&#45;&gt;1A,B</title>
<path fill="none" stroke="black" d="M316.27,-501.14C318.49,-509.03 321.16,-518.44 323.63,-527.18"/>
<polygon fill="black" stroke="black" points="320.31,-528.31 326.4,-536.98 327.04,-526.4 320.31,-528.31"/>
</g>
<!-- 16 -->
<g id="node27" class="node">
<title>16</title>
<ellipse fill="lightskyblue" stroke="lightskyblue" cx="256.8" cy="-523" rx="27" ry="18"/>
<text text-anchor="middle" x="256.8" y="-519.3" font-family="Times,serif" font-size="14.00">16</text>
</g>
<!-- Fig. 3&#45;&gt;16 -->
<g id="edge37" class="edge">
<title>Fig. 3&#45;&gt;16</title>
<path fill="none" stroke="black" d="M286.51,-501.13C285.44,-501.92 284.36,-502.72 283.28,-503.51"/>
<polygon fill="black" stroke="black" points="281.14,-500.74 275.16,-509.49 285.29,-506.38 281.14,-500.74"/>
</g>
<!-- 16&#45;&gt;51 -->
<g id="edge38" class="edge">
<title>16&#45;&gt;51</title>
<path fill="none" stroke="black" d="M230.37,-526.82C214.96,-529.05 195.3,-531.89 178.4,-534.34"/>
<polygon fill="black" stroke="black" points="177.69,-530.9 168.3,-535.8 178.7,-537.83 177.69,-530.9"/>
</g>
<!-- 16&#45;&gt;17 -->
<g id="edge40" class="edge">
<title>16&#45;&gt;17</title>
<path fill="none" stroke="black" d="M243.71,-538.87C241.17,-541.95 238.46,-545.24 235.76,-548.51"/>
<polygon fill="black" stroke="black" points="232.87,-546.52 229.2,-556.46 238.27,-550.97 232.87,-546.52"/>
</g>
<!-- Table 1 -->
<g id="node28" class="node">
<title>Table 1</title>
<polygon fill="grey" stroke="grey" points="164.12,-300.96 89.12,-300.96 89.12,-264.96 164.12,-264.96 164.12,-300.96"/>
<text text-anchor="middle" x="126.62" y="-279.26" font-family="Times,serif" font-size="14.00">Table 1</text>
</g>
<!-- Table 1&#45;&gt;6A -->
<g id="edge7" class="edge">
<title>Table 1&#45;&gt;6A</title>
<path fill="none" stroke="black" d="M164.53,-291.97C197.82,-299.87 245.87,-311.29 278.43,-319.02"/>
<polygon fill="black" stroke="black" points="277.88,-322.49 288.42,-321.39 279.5,-315.67 277.88,-322.49"/>
</g>
<!-- 4A,B -->
<g id="node29" class="node">
<title>4A,B</title>
<ellipse fill="lightskyblue" stroke="lightskyblue" cx="76.53" cy="-218.03" rx="30" ry="18"/>
<text text-anchor="middle" x="76.53" y="-214.33" font-family="Times,serif" font-size="14.00">4A,B</text>
</g>
<!-- Table 1&#45;&gt;4A,B -->
<g id="edge1" class="edge">
<title>Table 1&#45;&gt;4A,B</title>
<path fill="none" stroke="black" d="M112.67,-264.87C107.42,-258.08 101.37,-250.23 95.73,-242.92"/>
<polygon fill="black" stroke="black" points="98.26,-240.47 89.38,-234.69 92.72,-244.74 98.26,-240.47"/>
</g>
<!-- 5 -->
<g id="node30" class="node">
<title>5</title>
<ellipse fill="lightskyblue" stroke="lightskyblue" cx="46.81" cy="-257.58" rx="27" ry="18"/>
<text text-anchor="middle" x="46.81" y="-253.88" font-family="Times,serif" font-size="14.00">5</text>
</g>
<!-- Table 1&#45;&gt;5 -->
<g id="edge2" class="edge">
<title>Table 1&#45;&gt;5</title>
<path fill="none" stroke="black" d="M89.05,-271.01C86.43,-270.18 83.8,-269.34 81.2,-268.52"/>
<polygon fill="black" stroke="black" points="82.02,-265.1 71.43,-265.41 79.9,-271.78 82.02,-265.1"/>
</g>
<!-- 35 -->
<g id="node31" class="node">
<title>35</title>
<ellipse fill="lightskyblue" stroke="lightskyblue" cx="86.64" cy="-343.01" rx="27" ry="18"/>
<text text-anchor="middle" x="86.64" y="-339.31" font-family="Times,serif" font-size="14.00">35</text>
</g>
<!-- Table 1&#45;&gt;35 -->
<g id="edge8" class="edge">
<title>Table 1&#45;&gt;35</title>
<path fill="none" stroke="black" d="M114.62,-300.98C111.12,-306.24 107.23,-312.09 103.49,-317.71"/>
<polygon fill="black" stroke="black" points="100.44,-315.97 97.81,-326.24 106.26,-319.85 100.44,-315.97"/>
</g>
<!-- 36B -->
<g id="node32" class="node">
<title>36B</title>
<ellipse fill="lightskyblue" stroke="lightskyblue" cx="196.64" cy="-253.11" rx="27" ry="18"/>
<text text-anchor="middle" x="196.64" y="-249.41" font-family="Times,serif" font-size="14.00">36B</text>
</g>
<!-- Table 1&#45;&gt;36B -->
<g id="edge9" class="edge">
<title>Table 1&#45;&gt;36B</title>
<path fill="none" stroke="black" d="M164.5,-266.81C164.6,-266.77 164.69,-266.73 164.79,-266.69"/>
<polygon fill="black" stroke="black" points="165.77,-270.08 173.59,-262.94 163.02,-263.64 165.77,-270.08"/>
</g>
<!-- 37 -->
<g id="node33" class="node">
<title>37</title>
<ellipse fill="lightskyblue" stroke="lightskyblue" cx="36.14" cy="-302.91" rx="27" ry="18"/>
<text text-anchor="middle" x="36.14" y="-299.21" font-family="Times,serif" font-size="14.00">37</text>
</g>
<!-- Table 1&#45;&gt;37 -->
<g id="edge10" class="edge">
<title>Table 1&#45;&gt;37</title>
<path fill="none" stroke="black" d="M89.03,-291.25C83.33,-292.51 77.46,-293.8 71.79,-295.05"/>
<polygon fill="black" stroke="black" points="70.92,-291.66 61.91,-297.23 72.43,-298.49 70.92,-291.66"/>
</g>
<!-- 40 -->
<g id="node34" class="node">
<title>40</title>
<ellipse fill="lightskyblue" stroke="lightskyblue" cx="146.34" cy="-222.5" rx="27" ry="18"/>
<text text-anchor="middle" x="146.34" y="-218.8" font-family="Times,serif" font-size="14.00">40</text>
</g>
<!-- Table 1&#45;&gt;40 -->
<g id="edge11" class="edge">
<title>Table 1&#45;&gt;40</title>
<path fill="none" stroke="black" d="M132.54,-264.82C134.09,-260.07 135.79,-254.85 137.46,-249.74"/>
<polygon fill="black" stroke="black" points="140.79,-250.8 140.56,-240.21 134.13,-248.63 140.79,-250.8"/>
</g>
<!-- 5&#45;&gt;63A -->
<g id="edge3" class="edge">
<title>5&#45;&gt;63A</title>
<path fill="none" stroke="black" d="M44.14,-239.4C40.82,-216.78 35.1,-177.91 31.19,-151.31"/>
<polygon fill="black" stroke="black" points="34.61,-150.47 29.69,-141.08 27.68,-151.48 34.61,-150.47"/>
</g>
<!-- 63B -->
<g id="node36" class="node">
<title>63B</title>
<ellipse fill="lightcoral" stroke="lightcoral" cx="117.04" cy="-112.94" rx="27" ry="18"/>
<text text-anchor="middle" x="117.04" y="-109.24" font-family="Times,serif" font-size="14.00">63B</text>
</g>
<!-- 63A&#45;&gt;63B -->
<g id="edge4" class="edge">
<title>63A&#45;&gt;63B</title>
<path fill="none" stroke="black" d="M54.01,-119.81C62.28,-118.91 71.52,-117.9 80.31,-116.94"/>
<polygon fill="black" stroke="black" points="80.79,-120.41 90.35,-115.85 80.03,-113.45 80.79,-120.41"/>
</g>
<!-- 64 -->
<g id="node37" class="node">
<title>64</title>
<ellipse fill="indianred" stroke="indianred" cx="166.58" cy="-182.29" rx="27" ry="18"/>
<text text-anchor="middle" x="166.58" y="-178.59" font-family="Times,serif" font-size="14.00">64</text>
</g>
<!-- 63A&#45;&gt;64 -->
<g id="edge6" class="edge">
<title>63A&#45;&gt;64</title>
<path fill="none" stroke="black" d="M50.05,-132.59C72.98,-142.37 108.37,-157.46 134.14,-168.45"/>
<polygon fill="black" stroke="black" points="132.93,-171.74 143.5,-172.44 135.67,-165.3 132.93,-171.74"/>
</g>
<!-- 67A -->
<g id="node38" class="node">
<title>67A</title>
<ellipse fill="lightcoral" stroke="lightcoral" cx="71.81" cy="-172.37" rx="27" ry="18"/>
<text text-anchor="middle" x="71.81" y="-168.67" font-family="Times,serif" font-size="14.00">67A</text>
</g>
<!-- 63A&#45;&gt;67A -->
<g id="edge79" class="edge">
<title>63A&#45;&gt;67A</title>
<path fill="none" stroke="black" d="M40.93,-138.18C44.11,-141.69 47.54,-145.5 50.94,-149.26"/>
<polygon fill="black" stroke="black" points="48.43,-151.71 57.73,-156.78 53.63,-147.01 48.43,-151.71"/>
</g>
<!-- 63B&#45;&gt;64 -->
<g id="edge5" class="edge">
<title>63B&#45;&gt;64</title>
<path fill="none" stroke="black" d="M128.78,-129.37C134.83,-137.84 142.32,-148.33 149.04,-157.73"/>
<polygon fill="black" stroke="black" points="146.26,-159.87 154.92,-165.97 151.96,-155.8 146.26,-159.87"/>
</g>
<!-- 11A&#45;&gt;11A -->
<g id="edge18" class="edge">
<title>11A&#45;&gt;11A</title>
<path fill="none" stroke="black" d="M602.48,-599.56C613.07,-600.02 622.04,-597.79 622.04,-592.87 622.04,-589.64 618.18,-587.57 612.53,-586.66"/>
<polygon fill="black" stroke="black" points="612.64,-583.16 602.48,-586.18 612.31,-590.15 612.64,-583.16"/>
</g>
<!-- 61B -->
<g id="node41" class="node">
<title>61B</title>
<ellipse fill="lightcoral" stroke="lightcoral" cx="587.04" cy="-532.87" rx="27" ry="18"/>
<text text-anchor="middle" x="587.04" y="-529.17" font-family="Times,serif" font-size="14.00">61B</text>
</g>
<!-- 11A&#45;&gt;61B -->
<g id="edge15" class="edge">
<title>11A&#45;&gt;61B</title>
<path fill="none" stroke="black" d="M580.04,-574.87C580.77,-570.48 581.57,-565.68 582.36,-560.94"/>
<polygon fill="black" stroke="black" points="585.85,-561.3 584.04,-550.86 578.95,-560.15 585.85,-561.3"/>
</g>
<!-- 62 -->
<g id="node42" class="node">
<title>62</title>
<ellipse fill="lightcoral" stroke="lightcoral" cx="607.04" cy="-477.87" rx="27" ry="18"/>
<text text-anchor="middle" x="607.04" y="-474.17" font-family="Times,serif" font-size="14.00">62</text>
</g>
<!-- 61B&#45;&gt;62 -->
<g id="edge16" class="edge">
<title>61B&#45;&gt;62</title>
<path fill="none" stroke="black" d="M593.48,-515.16C594.66,-511.93 595.91,-508.48 597.16,-505.04"/>
<polygon fill="black" stroke="black" points="600.49,-506.14 600.61,-495.54 593.91,-503.74 600.49,-506.14"/>
</g>
<!-- Fig. 4 -->
<g id="node47" class="node">
<title>Fig. 4</title>
<polygon fill="grey" stroke="grey" points="274.96,-370.41 210.96,-370.41 210.96,-334.41 274.96,-334.41 274.96,-370.41"/>
<text text-anchor="middle" x="242.96" y="-348.71" font-family="Times,serif" font-size="14.00">Fig. 4</text>
</g>
<!-- Fig. 4&#45;&gt;6A -->
<g id="edge48" class="edge">
<title>Fig. 4&#45;&gt;6A</title>
<path fill="none" stroke="black" d="M275.14,-341.1C276.86,-340.5 278.58,-339.89 280.3,-339.29"/>
<polygon fill="black" stroke="black" points="281.7,-342.51 289.98,-335.89 279.38,-335.9 281.7,-342.51"/>
</g>
<!-- Fig. 4&#45;&gt;18 -->
<g id="edge49" class="edge">
<title>Fig. 4&#45;&gt;18</title>
<path fill="none" stroke="black" d="M235.58,-370.6C234.26,-373.87 232.85,-377.33 231.45,-380.78"/>
<polygon fill="black" stroke="black" points="228.1,-379.72 227.59,-390.3 234.59,-382.35 228.1,-379.72"/>
</g>
<!-- 20 -->
<g id="node48" class="node">
<title>20</title>
<ellipse fill="lightskyblue" stroke="lightskyblue" cx="282.78" cy="-396.43" rx="27" ry="18"/>
<text text-anchor="middle" x="282.78" y="-392.73" font-family="Times,serif" font-size="14.00">20</text>
</g>
<!-- Fig. 4&#45;&gt;20 -->
<g id="edge46" class="edge">
<title>Fig. 4&#45;&gt;20</title>
<path fill="none" stroke="black" d="M259.39,-370.57C260.16,-371.42 260.94,-372.28 261.72,-373.15"/>
<polygon fill="black" stroke="black" points="259.37,-375.77 268.68,-380.84 264.57,-371.08 259.37,-375.77"/>
</g>
<!-- 2 -->
<g id="node49" class="node">
<title>2</title>
<ellipse fill="lightskyblue" stroke="lightskyblue" cx="156.59" cy="-352.83" rx="27" ry="18"/>
<text text-anchor="middle" x="156.59" y="-349.13" font-family="Times,serif" font-size="14.00">2</text>
</g>
<!-- Fig. 4&#45;&gt;2 -->
<g id="edge47" class="edge">
<title>Fig. 4&#45;&gt;2</title>
<path fill="none" stroke="black" d="M210.8,-352.57C205.22,-352.59 199.39,-352.62 193.69,-352.65"/>
<polygon fill="black" stroke="black" points="193.67,-349.15 183.68,-352.7 193.7,-356.15 193.67,-349.15"/>
</g>
<!-- 19 -->
<g id="node50" class="node">
<title>19</title>
<ellipse fill="lightskyblue" stroke="lightskyblue" cx="155.48" cy="-415.93" rx="27" ry="18"/>
<text text-anchor="middle" x="155.48" y="-412.23" font-family="Times,serif" font-size="14.00">19</text>
</g>
<!-- Fig. 4&#45;&gt;19 -->
<g id="edge53" class="edge">
<title>Fig. 4&#45;&gt;19</title>
<path fill="none" stroke="black" d="M218.13,-370.44C206.94,-378.57 193.7,-388.18 182.29,-396.47"/>
<polygon fill="black" stroke="black" points="180.01,-393.79 173.98,-402.5 184.12,-399.46 180.01,-393.79"/>
</g>
<!-- 19&#45;&gt;51 -->
<g id="edge56" class="edge">
<title>19&#45;&gt;51</title>
<path fill="none" stroke="black" d="M153.46,-433.92C151.18,-454.26 147.43,-487.65 144.76,-511.46"/>
<polygon fill="black" stroke="black" points="141.25,-511.32 143.61,-521.65 148.21,-512.1 141.25,-511.32"/>
</g>
<!-- 21A -->
<g id="node51" class="node">
<title>21A</title>
<ellipse fill="lightcoral" stroke="lightcoral" cx="85.93" cy="-472.16" rx="27" ry="18"/>
<text text-anchor="middle" x="85.93" y="-468.46" font-family="Times,serif" font-size="14.00">21A</text>
</g>
<!-- 19&#45;&gt;21A -->
<g id="edge54" class="edge">
<title>19&#45;&gt;21A</title>
<path fill="none" stroke="black" d="M138.29,-429.83C130.16,-436.4 120.29,-444.38 111.32,-451.64"/>
<polygon fill="black" stroke="black" points="108.98,-449.02 103.41,-458.03 113.38,-454.46 108.98,-449.02"/>
</g>
<!-- 21A&#45;&gt;51 -->
<g id="edge55" class="edge">
<title>21A&#45;&gt;51</title>
<path fill="none" stroke="black" d="M99.12,-488.16C105.98,-496.48 114.51,-506.81 122.11,-516.04"/>
<polygon fill="black" stroke="black" points="119.43,-518.29 128.49,-523.78 124.83,-513.84 119.43,-518.29"/>
</g>
<!-- Fig. 5A -->
<g id="node52" class="node">
<title>Fig. 5A</title>
<polygon fill="grey" stroke="grey" points="605.08,-310.9 528.08,-310.9 528.08,-274.9 605.08,-274.9 605.08,-310.9"/>
<text text-anchor="middle" x="566.58" y="-289.2" font-family="Times,serif" font-size="14.00">Fig. 5A</text>
</g>
<!-- Fig. 5A&#45;&gt;6A -->
<g id="edge59" class="edge">
<title>Fig. 5A&#45;&gt;6A</title>
<path fill="none" stroke="black" d="M527.94,-298.19C479.75,-304.78 397.98,-315.97 350.7,-322.43"/>
<polygon fill="black" stroke="black" points="350.03,-318.99 340.6,-323.82 350.98,-325.93 350.03,-318.99"/>
</g>
<!-- Fig. 5A&#45;&gt;6B -->
<g id="edge58" class="edge">
<title>Fig. 5A&#45;&gt;6B</title>
<path fill="none" stroke="black" d="M527.98,-289.41C487.24,-285.73 423.46,-279.97 383.36,-276.35"/>
<polygon fill="black" stroke="black" points="383.49,-272.85 373.21,-275.44 382.86,-279.82 383.49,-272.85"/>
</g>
<!-- Fig. 5A&#45;&gt;3A -->
<g id="edge60" class="edge">
<title>Fig. 5A&#45;&gt;3A</title>
<path fill="none" stroke="black" d="M565.21,-274.69C561.78,-229.21 552.84,-110.39 548.74,-55.95"/>
<polygon fill="black" stroke="black" points="552.23,-55.68 547.98,-45.97 545.25,-56.2 552.23,-55.68"/>
</g>
<!-- 23 -->
<g id="node53" class="node">
<title>23</title>
<ellipse fill="lightskyblue" stroke="lightskyblue" cx="526.66" cy="-202.31" rx="27" ry="18"/>
<text text-anchor="middle" x="526.66" y="-198.61" font-family="Times,serif" font-size="14.00">23</text>
</g>
<!-- Fig. 5A&#45;&gt;23 -->
<g id="edge57" class="edge">
<title>Fig. 5A&#45;&gt;23</title>
<path fill="none" stroke="black" d="M558.5,-274.57C552.76,-261.55 544.96,-243.85 538.52,-229.23"/>
<polygon fill="black" stroke="black" points="541.56,-227.43 534.32,-219.69 535.15,-230.26 541.56,-227.43"/>
</g>
<!-- Fig. 6B -->
<g id="node54" class="node">
<title>Fig. 6B</title>
<polygon fill="grey" stroke="grey" points="153.8,-70.63 78.8,-70.63 78.8,-34.63 153.8,-34.63 153.8,-70.63"/>
<text text-anchor="middle" x="116.3" y="-48.93" font-family="Times,serif" font-size="14.00">Fig. 6B</text>
</g>
<!-- Fig. 6B&#45;&gt;6A -->
<g id="edge62" class="edge">
<title>Fig. 6B&#45;&gt;6A</title>
<path fill="none" stroke="black" d="M129.27,-70.66C163.6,-118.4 256.91,-248.13 296.18,-302.72"/>
<polygon fill="black" stroke="black" points="293.53,-305.04 302.22,-311.12 299.22,-300.95 293.53,-305.04"/>
</g>
<!-- Fig. 6B&#45;&gt;6B -->
<g id="edge63" class="edge">
<title>Fig. 6B&#45;&gt;6B</title>
<path fill="none" stroke="black" d="M135.13,-70.67C177.05,-110.8 277.91,-207.39 323.45,-251"/>
<polygon fill="black" stroke="black" points="321.13,-253.62 330.78,-258.01 325.97,-248.57 321.13,-253.62"/>
</g>
<!-- Fig. 6B&#45;&gt;3A -->
<g id="edge61" class="edge">
<title>Fig. 6B&#45;&gt;3A</title>
<path fill="none" stroke="black" d="M154.11,-50.46C235.86,-45.78 428.23,-34.76 509.43,-30.11"/>
<polygon fill="black" stroke="black" points="509.89,-33.59 519.67,-29.52 509.49,-26.6 509.89,-33.59"/>
</g>
<!-- 30A -->
<g id="node55" class="node">
<title>30A</title>
<ellipse fill="lightskyblue" stroke="lightskyblue" cx="196.51" cy="-82.72" rx="27" ry="18"/>
<text text-anchor="middle" x="196.51" y="-79.02" font-family="Times,serif" font-size="14.00">30A</text>
</g>
<!-- Fig. 6B&#45;&gt;30A -->
<g id="edge64" class="edge">
<title>Fig. 6B&#45;&gt;30A</title>
<path fill="none" stroke="black" d="M154.06,-66.79C157.13,-67.95 160.22,-69.1 163.25,-70.24"/>
<polygon fill="black" stroke="black" points="162.08,-73.54 172.67,-73.78 164.54,-66.99 162.08,-73.54"/>
</g>
<!-- 30B -->
<g id="node56" class="node">
<title>30B</title>
<ellipse fill="lightcoral" stroke="lightcoral" cx="266.67" cy="-67.56" rx="27" ry="18"/>
<text text-anchor="middle" x="266.67" y="-63.86" font-family="Times,serif" font-size="14.00">30B</text>
</g>
<!-- 30A&#45;&gt;30B -->
<g id="edge65" class="edge">
<title>30A&#45;&gt;30B</title>
<path fill="none" stroke="black" d="M222.24,-77.16C225.1,-76.54 228.05,-75.91 231,-75.27"/>
<polygon fill="black" stroke="black" points="231.91,-78.65 240.95,-73.12 230.43,-71.81 231.91,-78.65"/>
</g>
<!-- 31 -->
<g id="node57" class="node">
<title>31</title>
<ellipse fill="lightcoral" stroke="lightcoral" cx="346.67" cy="-62.56" rx="27" ry="18"/>
<text text-anchor="middle" x="346.67" y="-58.86" font-family="Times,serif" font-size="14.00">31</text>
</g>
<!-- 30B&#45;&gt;31 -->
<g id="edge66" class="edge">
<title>30B&#45;&gt;31</title>
<path fill="none" stroke="black" d="M293.75,-65.87C298.84,-65.55 304.23,-65.21 309.56,-64.88"/>
<polygon fill="black" stroke="black" points="309.85,-68.37 319.61,-64.25 309.41,-61.38 309.85,-68.37"/>
</g>
<!-- 31&#45;&gt;56 -->
<g id="edge67" class="edge">
<title>31&#45;&gt;56</title>
<path fill="none" stroke="black" d="M373.67,-62.56C381.7,-62.56 390.64,-62.56 399.2,-62.56"/>
<polygon fill="black" stroke="black" points="399.38,-66.06 409.38,-62.56 399.37,-59.06 399.38,-66.06"/>
</g>
<!-- Fig. 5B -->
<g id="node58" class="node">
<title>Fig. 5B</title>
<polygon fill="grey" stroke="grey" points="514.08,-270.9 439.08,-270.9 439.08,-234.9 514.08,-234.9 514.08,-270.9"/>
<text text-anchor="middle" x="476.58" y="-249.2" font-family="Times,serif" font-size="14.00">Fig. 5B</text>
</g>
<!-- Fig. 5B&#45;&gt;6A -->
<g id="edge81" class="edge">
<title>Fig. 5B&#45;&gt;6A</title>
<path fill="none" stroke="black" d="M438.87,-270.19C410.62,-283.14 372.42,-300.66 345.72,-312.9"/>
<polygon fill="black" stroke="black" points="344.08,-309.8 336.45,-317.15 347,-316.16 344.08,-309.8"/>
</g>
<!-- Fig. 5B&#45;&gt;6B -->
<g id="edge82" class="edge">
<title>Fig. 5B&#45;&gt;6B</title>
<path fill="none" stroke="black" d="M438.94,-258.72C421.41,-261.43 400.63,-264.64 383.21,-267.34"/>
<polygon fill="black" stroke="black" points="382.21,-263.95 372.86,-268.94 383.28,-270.87 382.21,-263.95"/>
</g>
<!-- Fig. 5B&#45;&gt;3A -->
<g id="edge80" class="edge">
<title>Fig. 5B&#45;&gt;3A</title>
<path fill="none" stroke="black" d="M482.19,-234.87C494.42,-195.62 523.51,-102.21 538.05,-55.53"/>
<polygon fill="black" stroke="black" points="541.45,-56.37 541.09,-45.78 534.77,-54.29 541.45,-56.37"/>
</g>
<!-- 24A -->
<g id="node59" class="node">
<title>24A</title>
<ellipse fill="lightskyblue" stroke="lightskyblue" cx="446.68" cy="-192.75" rx="27" ry="18"/>
<text text-anchor="middle" x="446.68" y="-189.05" font-family="Times,serif" font-size="14.00">24A</text>
</g>
<!-- Fig. 5B&#45;&gt;24A -->
<g id="edge83" class="edge">
<title>Fig. 5B&#45;&gt;24A</title>
<path fill="none" stroke="black" d="M467.61,-234.85C465.16,-229.92 462.45,-224.47 459.82,-219.18"/>
<polygon fill="black" stroke="black" points="462.82,-217.36 455.23,-209.96 456.55,-220.47 462.82,-217.36"/>
</g>
<!-- 25 -->
<g id="node60" class="node">
<title>25</title>
<ellipse fill="lightcoral" stroke="lightcoral" cx="446.39" cy="-132.63" rx="27" ry="18"/>
<text text-anchor="middle" x="446.39" y="-128.93" font-family="Times,serif" font-size="14.00">25</text>
</g>
<!-- 24A&#45;&gt;25 -->
<g id="edge84" class="edge">
<title>24A&#45;&gt;25</title>
<path fill="none" stroke="black" d="M446.59,-174.71C446.57,-170.31 446.55,-165.5 446.52,-160.76"/>
<polygon fill="black" stroke="black" points="450.02,-160.64 446.47,-150.66 443.02,-160.67 450.02,-160.64"/>
</g>
</g>
</svg>
